HIERARCHY
ROOT hip
{
  OFFSET 0 0 0
  CHANNELS 6 Xposition Yposition Zposition Zrotation Yrotation Xrotation
  JOINT abdomen
  {
    OFFSET 0 20.6881 -0.73152
    CHANNELS 3 Zrotation Xrotation Yrotation
    JOINT chest
    {
      OFFSET 0 11.7043 -0.48768
      CHANNELS 3 Zrotation Xrotation Yrotation
      JOINT neck
      {
        OFFSET 0 22.1894 -2.19456
        CHANNELS 3 Zrotation Xrotation Yrotation
        JOINT head
        {
          OFFSET -0.24384 7.07133 1.2192
          CHANNELS 3 Zrotation Xrotation Yrotation
          JOINT leftEye
          {
            OFFSET 4.14528 8.04674 8.04672
            CHANNELS 3 Zrotation Xrotation Yrotation
            End Site
            {
              OFFSET 1 0 0
            }
          }
          JOINT rightEye
          {
            OFFSET -3.6576 8.04674 8.04672
            CHANNELS 3 Zrotation Xrotation Yrotation
            End Site
            {
              OFFSET 1 0 0
            }
          }
        }
      }
      JOINT rCollar
      {
        OFFSET -2.68224 19.2634 -4.8768
        CHANNELS 3 Zrotation Xrotation Yrotation
        JOINT rShldr
        {
          OFFSET -8.77824 -1.95073 1.46304
          CHANNELS 3 Zrotation Xrotation Yrotation
          JOINT rForeArm
          {
            OFFSET -28.1742 -1.7115 0.48768
            CHANNELS 3 Zrotation Xrotation Yrotation
            JOINT rHand
            {
              OFFSET -22.5879 0.773209 7.07136
              CHANNELS 3 Zrotation Xrotation Yrotation
              JOINT rThumb1
              {
                OFFSET -1.2192 -0.487915 3.41376
                CHANNELS 3 Zrotation Xrotation Yrotation
                JOINT rThumb2
                {
                  OFFSET -3.37035 -0.52449 3.41376
                  CHANNELS 3 Zrotation Xrotation Yrotation
                  End Site
                  {
                    OFFSET -1.78271 -1.18214 1.43049
                  }
                }
              }
              JOINT rIndex1
              {
                OFFSET -7.75947 0.938293 5.60832
                CHANNELS 3 Zrotation Xrotation Yrotation
                JOINT rIndex2
                {
                  OFFSET -2.54057 -0.884171 1.56538
                  CHANNELS 3 Zrotation Xrotation Yrotation
                  End Site
                  {
                    OFFSET -1.62519 -0.234802 1.16502
                  }
                }
              }
              JOINT rMid1
              {
                OFFSET -8.24714 1.18213 3.41376
                CHANNELS 3 Zrotation Xrotation Yrotation
                JOINT rMid2
                {
                  OFFSET -3.10165 -0.590103 1.0647
                  CHANNELS 3 Zrotation Xrotation Yrotation
                  End Site
                  {
                    OFFSET -2.48547 -0.328903 0.83742
                  }
                }
              }
              JOINT rRing1
              {
                OFFSET -8.82822 0.546677 1.51678
                CHANNELS 3 Zrotation Xrotation Yrotation
                JOINT rRing2
                {
                  OFFSET -2.60934 -0.819778 -0.0198488
                  CHANNELS 3 Zrotation Xrotation Yrotation
                  End Site
                  {
                    OFFSET -2.33842 -0.294052 0.168128
                  }
                }
              }
              JOINT rPinky1
              {
                OFFSET -8.27202 -0.0477905 -0.4584
                CHANNELS 3 Zrotation Xrotation Yrotation
                JOINT rPinky2
                {
                  OFFSET -1.82734 -0.647385 -0.700984
                  CHANNELS 3 Zrotation Xrotation Yrotation
                  End Site
                  {
                    OFFSET -1.69225 -0.51767 -0.607171
                  }
                }
              }
            }
          }
        }
      }
      JOINT lCollar
      {
        OFFSET 2.68224 19.2634 -4.8768
        CHANNELS 3 Zrotation Xrotation Yrotation
        JOINT lShldr
        {
          OFFSET 8.77824 -1.95073 1.46304
          CHANNELS 3 Zrotation Xrotation Yrotation
          JOINT lForeArm
          {
            OFFSET 28.1742 -1.7115 0.48768
            CHANNELS 3 Zrotation Xrotation Yrotation
            JOINT lHand
            {
              OFFSET 22.5879 0.773209 7.07136
              CHANNELS 3 Zrotation Xrotation Yrotation
              JOINT lThumb1
              {
                OFFSET 1.2192 -0.487915 3.41376
                CHANNELS 3 Zrotation Xrotation Yrotation
                JOINT lThumb2
                {
                  OFFSET 3.37035 -0.52449 3.41376
                  CHANNELS 3 Zrotation Xrotation Yrotation
                  End Site
                  {
                    OFFSET 1.78271 -1.18214 1.43049
                  }
                }
              }
              JOINT lIndex1
              {
                OFFSET 7.75947 0.938293 5.60832
                CHANNELS 3 Zrotation Xrotation Yrotation
                JOINT lIndex2
                {
                  OFFSET 2.54057 -0.884171 1.56538
                  CHANNELS 3 Zrotation Xrotation Yrotation
                  End Site
                  {
                    OFFSET 1.62519 -0.234802 1.16502
                  }
                }
              }
              JOINT lMid1
              {
                OFFSET 8.24714 1.18213 3.41376
                CHANNELS 3 Zrotation Xrotation Yrotation
                JOINT lMid2
                {
                  OFFSET 3.10165 -0.590103 1.0647
                  CHANNELS 3 Zrotation Xrotation Yrotation
                  End Site
                  {
                    OFFSET 2.48547 -0.328903 0.83742
                  }
                }
              }
              JOINT lRing1
              {
                OFFSET 8.82822 0.546677 1.51678
                CHANNELS 3 Zrotation Xrotation Yrotation
                JOINT lRing2
                {
                  OFFSET 2.60934 -0.819778 -0.0198488
                  CHANNELS 3 Zrotation Xrotation Yrotation
                  End Site
                  {
                    OFFSET 2.33842 -0.294052 0.168128
                  }
                }
              }
              JOINT lPinky1
              {
                OFFSET 8.27202 -0.0477905 -0.4584
                CHANNELS 3 Zrotation Xrotation Yrotation
                JOINT lPinky2
                {
                  OFFSET 1.82734 -0.647385 -0.700984
                  CHANNELS 3 Zrotation Xrotation Yrotation
                  End Site
                  {
                    OFFSET 1.69225 -0.51767 -0.607171
                  }
                }
              }
            }
          }
        }
      }
    }
  }
  JOINT rButtock
  {
    OFFSET -8.77824 4.35084 1.2192
    CHANNELS 3 Zrotation Xrotation Yrotation
    JOINT rThigh
    {
      OFFSET 0 -1.70687 -2.19456
      CHANNELS 3 Zrotation Xrotation Yrotation
      JOINT rShin
      {
        OFFSET 0 -36.8199 0.73152
        CHANNELS 3 Zrotation Xrotation Yrotation
        JOINT rFoot
        {
          OFFSET 0.73152 -45.1104 -5.12064
          CHANNELS 3 Zrotation Xrotation Yrotation
          End Site
          {
            OFFSET -1.1221 -3.69964 12.103
          }
        }
      }
    }
  }
  JOINT lButtock
  {
    OFFSET 8.77824 4.35084 1.2192
    CHANNELS 3 Zrotation Xrotation Yrotation
    JOINT lThigh
    {
      OFFSET 0 -1.70687 -2.19456
      CHANNELS 3 Zrotation Xrotation Yrotation
      JOINT lShin
      {
        OFFSET 0 -36.8199 0.73152
        CHANNELS 3 Zrotation Xrotation Yrotation
        JOINT lFoot
        {
          OFFSET -0.73152 -45.1104 -5.12064
          CHANNELS 3 Zrotation Xrotation Yrotation
          End Site
          {
            OFFSET 1.1221 -3.69964 12.103
          }
        }
      }
    }
  }
}
MOTION
Frames:	4
Frame Time:	0.03333
-68.156 65.9147 -212.02700000000002 213.752 -62.187 512.1150000000001 15.185800000000002 10.2992 4.30885 1.20876 -8.564 1.37152 0.190089 12.1568 4.98353 3.0274699999999997 -26.5992 10.6284 -0.0 0.0 0.0 -0.0 0.0 0.0 4.0086599999999995e-13 -1.6282400000000001e-12 -7.18706e-13 105.063 45.4573 -52.2901 -26.4783 -45.2834 94.0446 -9.32817 -62.1429 -15.421399999999998 5.95925e-10 2.0271600000000002e-10 -1.54844e-09 1.099e-09 2.94853e-10 -2.64379e-09 5.95932e-10 2.0272100000000003e-10 -1.54845e-09 7.730909999999999 5.47488 0.417314 5.95929e-10 2.02719e-10 -1.5484300000000002e-09 2.90554 0.965183 0.102902 5.959349999999999e-10 2.0272e-10 -1.54844e-09 10.278600000000003 0.731801 0.0259123 5.959210000000001e-10 2.02722e-10 -1.5484300000000002e-09 2.22167 -0.733487 -0.20892000000000002 4.00561e-13 -1.62825e-12 -7.189539999999999e-13 -79.4381 -12.5262 -88.99740000000001 5.842089999999999 -1.97379 -10.2035 23.134199999999996 74.3851 -30.189100000000003 -4.53034e-09 4.32321e-10 5.01811e-09 -7.406360000000001e-09 4.74027e-10 8.8958e-09 -4.53036e-09 4.32315e-10 5.01812e-09 -7.730909999999999 5.47488 -0.417314 -4.53034e-09 4.32322e-10 5.01812e-09 -2.90554 0.965183 -0.102902 -4.53034e-09 4.32321e-10 5.01811e-09 -10.278600000000003 0.731801 -0.0259123 -4.53033e-09 4.32321e-10 5.0181e-09 -2.22167 -0.733487 0.20892000000000002 -2.03217e-16 0.0 -3.88251e-19 -7.30885 4.04378 -11.074899999999998 -0.142547 39.7947 1.80696 -13.2237 -15.9072 -29.7911 2.03217e-16 0.0 3.88251e-19 73.5283 -58.710399999999986 59.067 3.50704 76.0452 -3.62372 -0.924528 -2.61286 -8.25351
-68.2196 65.9009 -212.072 213.754 -62.1851 512.0760000000001 15.2146 10.284 4.28962 1.15835 -8.55662 1.36353 0.23992300000000003 12.1807 5.00412 2.96931 -26.509 10.6467 -0.0 0.0 0.0 -0.0 0.0 0.0 1.1147e-13 -6.11527e-13 -8.552399999999998e-14 105.177 45.4769 -52.3207 -26.5214 -45.1872 93.846 -9.11968 -61.7846 -15.185200000000004 -1.3547200000000003e-09 2.01813e-10 -3.10982e-10 -2.31408e-09 3.60123e-10 -6.0656e-10 -1.3547200000000003e-09 2.0181899999999997e-10 -3.10988e-10 7.730909999999999 5.47488 0.417314 -1.3547200000000003e-09 2.01815e-10 -3.10973e-10 2.90554 0.965183 0.102902 -1.35471e-09 2.0181700000000003e-10 -3.1098e-10 10.278600000000003 0.731801 0.0259123 -1.3547200000000003e-09 2.0181700000000003e-10 -3.1097199999999993e-10 2.22167 -0.733487 -0.20892000000000002 1.11343e-13 -6.11521e-13 -8.57756e-14 -77.56590000000001 -12.980800000000002 -88.54860000000001 5.93146 -2.0134999999999996 -10.363 20.2959 72.9328 -27.232299999999995 -4.81276e-10 8.601279999999999e-10 4.0981699999999996e-10 -7.71203e-10 1.2045800000000002e-09 7.55918e-10 -4.812890000000001e-10 8.601249999999999e-10 4.09822e-10 -7.730909999999999 5.47488 -0.417314 -4.812740000000001e-10 8.601279999999999e-10 4.0982e-10 -2.90554 0.965183 -0.102902 -4.81279e-10 8.601270000000002e-10 4.09816e-10 -10.278600000000003 0.731801 -0.0259123 -4.81269e-10 8.601279999999999e-10 4.09805e-10 -2.22167 -0.733487 0.20892000000000002 -2.03217e-16 0.0 -3.88251e-19 -7.347229999999999 4.14693 -11.0942 -0.141186 39.728 1.80636 -13.2118 -15.9395 -29.7442 2.03217e-16 0.0 3.88251e-19 73.5646 -58.6617 59.125 3.53413 76.1278 -3.65236 -0.9347300000000001 -2.70428 -8.22783
-68.2885 65.8906 -212.088 213.70700000000002 -62.1633 512.146 15.305100000000001 10.2446 4.25787 1.09527 -8.54313 1.35079 0.255737 12.201100000000002 5.009740000000001 2.9705199999999996 -26.4352 10.6525 -0.0 0.0 0.0 -0.0 0.0 0.0 -1.0734499999999998e-13 -5.129279999999999e-14 6.3949e-13 105.285 45.47729999999999 -52.3837 -26.556 -45.10920000000001 93.685 -8.93149 -61.452700000000014 -14.9713 -3.34631e-09 1.79377e-10 1.09353e-09 -5.8062e-09 3.91027e-10 1.71759e-09 -3.34631e-09 1.7938300000000003e-10 1.09353e-09 7.730909999999999 5.47488 0.417314 -3.34631e-09 1.7937800000000001e-10 1.09354e-09 2.90554 0.965183 0.102902 -3.34631e-09 1.7938e-10 1.09353e-09 10.278600000000003 0.731801 0.0259123 -3.3463199999999997e-09 1.7937800000000001e-10 1.09354e-09 2.22167 -0.733487 -0.20892000000000002 -1.073e-13 -5.127929999999999e-14 6.39242e-13 -75.5032 -13.435 -88.0299 6.03631 -2.05989 -10.5507 17.534799999999997 71.16380000000001 -24.3295 4.31482e-09 1.43874e-09 -4.55605e-09 7.116400000000002e-09 2.18565e-09 -8.04159e-09 4.31482e-09 1.43874e-09 -4.55604e-09 -7.730909999999999 5.47488 -0.417314 4.31482e-09 1.4387299999999998e-09 -4.55605e-09 -2.90554 0.965183 -0.102902 4.31481e-09 1.4387299999999998e-09 -4.55605e-09 -10.278600000000003 0.731801 -0.0259123 4.31482e-09 1.43874e-09 -4.556059999999999e-09 -2.22167 -0.733487 0.20892000000000002 -2.03217e-16 0.0 -3.88251e-19 -7.36564 4.27015 -11.1398 -0.139167 39.62629999999999 1.8050999999999995 -13.173799999999998 -15.9498 -29.672699999999992 2.03217e-16 0.0 3.88251e-19 73.6205 -58.653299999999994 59.1562 3.5678 76.2287 -3.68813 -0.9321780000000002 -2.7716800000000004 -8.1577
-68.3633 65.8702 -212.108 213.764 -62.1196 512.1180000000002 15.410300000000003 10.1646 4.23622 1.07072 -8.509480000000002 1.3413299999999997 0.178713 12.2047 5.00233 3.1181800000000006 -26.422 10.6766 -0.0 0.0 0.0 -0.0 0.0 0.0 4.79322e-14 -7.29516e-13 4.93135e-13 105.351 45.461000000000006 -52.492 -26.5822 -45.04930000000001 93.562 -8.743169999999997 -61.1118 -14.756600000000002 -2.39282e-09 1.17632e-10 8.34168e-10 -4.1552e-09 2.6141799999999994e-10 1.32051e-09 -2.39281e-09 1.17635e-10 8.34162e-10 7.730909999999999 5.47488 0.417314 -2.39282e-09 1.17632e-10 8.341720000000002e-10 2.90554 0.965183 0.102902 -2.39282e-09 1.17635e-10 8.34174e-10 10.278600000000003 0.731801 0.0259123 -2.39283e-09 1.17635e-10 8.34186e-10 2.22167 -0.733487 -0.20892000000000002 4.791620000000001e-14 -7.29514e-13 4.92924e-13 -76.8467 -13.5316 -88.1936 5.99217 -2.03915 -10.471499999999999 19.5832 72.516 -26.4861 4.03646e-09 1.59745e-09 -2.7138e-09 6.745999999999999e-09 2.48511e-09 -4.873690000000001e-09 4.03646e-09 1.59745e-09 -2.7137899999999996e-09 -7.730909999999999 5.47488 -0.417314 4.03646e-09 1.59745e-09 -2.7138e-09 -2.90554 0.965183 -0.102902 4.03645e-09 1.59745e-09 -2.7138e-09 -10.278600000000003 0.731801 -0.0259123 4.03646e-09 1.59745e-09 -2.71381e-09 -2.22167 -0.733487 0.20892000000000002 -2.03217e-16 0.0 -3.88251e-19 -7.36909 4.37556 -11.17 -0.136815 39.5112 1.80347 -13.1208 -15.8949 -29.6418 2.03217e-16 0.0 3.88251e-19 73.7333 -58.6587 59.22689999999999 3.6102099999999995 76.3593 -3.73309 -0.9231409999999999 -2.80555 -8.081
